<svg width="90" height="90" xmlns="http://www.w3.org/2000/svg" xmlns:svg="http://www.w3.org/2000/svg">
 <title>fist</title>
 <g>
  <title>Layer 1</title>
  <circle id="svg_3" r="43.800652" cy="44.999999" cx="44.999999" stroke-width="2" fill="#AB7C94"/>
  <path id="svg_1" fill="#000000" d="m57.547342,76.99119c2.092939,-1.811861 3.126348,-3.987347 3.100225,-6.523325c0,-0.066874 0,-0.133748 0,-0.200621c2.648827,-0.362581 5.084495,-1.341655 7.310137,-2.93931l0.020898,-0.020898c3.396978,-2.511945 5.061507,-5.539027 4.992543,-9.080201c-0.003135,-0.847416 -0.096131,-1.673934 -0.282124,-2.477463c0.309291,-0.200621 0.638435,-0.415871 0.985343,-0.642615c0.040751,-0.036572 0.081502,-0.068964 0.121209,-0.101356c2.24236,-1.568398 3.364586,-4.078254 3.362496,-7.531656c0.079413,-1.925755 -0.597684,-3.885992 -2.032335,-5.878621c0.684411,-0.394973 1.341655,-0.830697 1.972776,-1.308218c0.327054,-0.229879 0.703219,-0.525586 1.12745,-0.886077c0.154646,-0.133748 0.295707,-0.282124 0.423185,-0.444083c0.029257,-0.039706 0.063739,-0.086727 0.101356,-0.141062c3.331149,-3.04798 4.962241,-6.077152 4.892233,-9.079157c0.174499,-3.108584 -1.429426,-6.122083 -4.811775,-9.042585l-0.020898,-0.018808c-5.535893,-4.957017 -12.562861,-5.937135 -21.08195,-2.93931c-0.189127,-0.205846 -0.383479,-0.413781 -0.5841,-0.624852l0,0.020898c-4.332165,-4.519203 -9.097965,-6.755294 -14.296354,-6.706183c-3.670742,-0.099266 -7.846172,1.752301 -12.5242,5.557836l-0.020898,0.020898c-2.772126,2.141005 -5.093899,5.455435 -6.966364,9.946425c-1.129539,-0.602909 -2.263258,-0.877718 -3.403247,-0.825473c-4.163936,-0.16405 -7.492995,2.29774 -9.988222,7.390594l0.020898,-0.020898c-1.754391,3.495198 -2.895424,7.341484 -3.422055,11.537812l0,0.018808c-0.509912,4.266336 -0.040751,8.56193 1.409573,12.886781l0.020898,0.020898c1.508839,4.71251 5.14092,7.321631 10.893107,7.832588c0.58828,1.154617 1.354193,2.363569 2.29565,3.624766l0.019853,0.020898c3.241287,4.623693 8.690453,6.295537 16.349587,5.013441c0.561113,0.638435 1.205817,1.28314 1.934114,1.934114l0,0.020898c3.196356,2.867212 6.518101,4.255887 9.967324,4.168115l0.039706,0c3.530725,-0.068964 6.20881,-0.915334 8.034254,-2.538068c0.010449,-0.019853 0.025078,-0.032392 0.039706,-0.044931zm-7.389549,-21.584548c0.039706,0.022988 0.079413,0.050155 0.120164,0.080457c0.269585,0.15987 0.538125,0.322875 0.80562,0.482745c2.006213,1.207907 4.12005,2.060547 6.341512,2.556876c1.619599,0.364671 3.284128,0.545439 4.993588,0.543349c1.738718,-0.001045 3.403247,-0.236148 4.993588,-0.704264c-0.114939,1.708415 -1.021915,3.192177 -2.718836,4.450239l-0.020898,0.020898c-1.900677,1.357328 -4.034368,2.03547 -6.403162,2.03338c-2.808698,-0.001045 -5.427223,-0.740836 -7.853486,-2.214148l0.020898,0.018808c-2.467014,-1.534962 -3.735526,-3.514007 -3.805534,-5.94027c-0.001045,-0.972804 0.307201,-1.696921 0.925783,-2.173397l0.040751,0c0.27063,-0.173454 0.572606,-0.309291 0.90593,-0.403332c0.504688,0.429455 1.056396,0.846371 1.65408,1.248658zm7.731233,-11.879495c0.111805,0.033437 0.219429,0.059559 0.322875,0.080457c0.294662,0.05329 0.59037,0.10658 0.886077,0.15987l-0.141062,-0.039706c2.198475,0.523496 4.414712,0.711579 6.644534,0.563202l0.019853,0c1.335385,-0.077323 2.671815,-0.27063 4.008245,-0.5841c1.218356,1.313442 1.8756,2.56837 1.973821,3.764783c-0.00209,1.312397 -0.343773,2.311324 -1.027139,3.00096l-0.061649,0.060604c-0.020898,0.012539 -0.039706,0.026123 -0.060604,0.040751c-0.37303,0.240328 -0.722028,0.476475 -1.046992,0.705309l-0.019853,0c-0.368851,0.261226 -0.711579,0.497374 -1.027139,0.704264c-0.032392,0.016718 -0.065829,0.036572 -0.100311,0.060604c-0.15778,0.061649 -0.312426,0.142107 -0.462892,0.241372c-0.10867,0.033437 -0.216295,0.072098 -0.322875,0.120164c-1.565264,0.740836 -3.249646,1.110731 -5.054193,1.107596c-1.295679,-0.00209 -2.557921,-0.143152 -3.785681,-0.421096c-1.642586,-0.363626 -3.206805,-0.987433 -4.691612,-1.87351c-0.267495,-0.160915 -0.536035,-0.322875 -0.80562,-0.48379c-0.714713,-0.500508 -1.318667,-1.037588 -1.811861,-1.610195l0,0.020898c-1.005196,-1.196413 -1.507794,-2.557921 -1.509884,-4.088703c0.001045,-1.033408 0.350042,-1.798277 1.048037,-2.294606l0,-0.020898c0.898616,-0.499463 2.067862,-0.747105 3.503558,-0.74397c1.010421,0.604998 2.184891,1.113866 3.522366,1.529737zm17.27746,-18.645238l0.019853,0.020898c1.842163,1.586162 2.808698,3.170234 2.899604,4.750126c-0.149421,1.65617 -1.216266,3.380259 -3.201581,5.175401c-0.090907,0.087772 -0.177633,0.182858 -0.261226,0.282124c-0.071053,0.086727 -0.138972,0.167184 -0.200621,0.242417c-0.183903,0.148376 -0.351087,0.274809 -0.502598,0.382434c-0.033437,0.028212 -0.066874,0.05538 -0.101356,0.080457c-1.048037,0.80562 -2.208924,1.450324 -3.483704,1.934114c-0.421096,0.122254 -0.850551,0.243462 -1.288365,0.361536c-1.254928,0.347952 -2.509855,0.554843 -3.765828,0.624852l-0.019853,0c-1.683338,0.119119 -3.355181,-0.015674 -5.014486,-0.403332c-0.047021,-0.013584 -0.095086,-0.026123 -0.141062,-0.039706c-0.242417,-0.044931 -0.484835,-0.090907 -0.725162,-0.141062c-0.240328,-0.077323 -0.476475,-0.156735 -0.704264,-0.242417c0.925783,-0.509912 1.730358,-1.214177 2.415814,-2.113837c0.011494,-0.020898 0.024033,-0.040751 0.041796,-0.059559c0.892347,-1.189099 1.470178,-2.61957 1.730358,-4.288279c0.552753,0.229879 1.358373,0.578876 2.416859,1.045947c0.708444,0.314516 1.418977,0.334369 2.134736,0.061649c0.710534,-0.278989 1.220446,-0.768003 1.529737,-1.471223c0.315561,-0.706354 0.335414,-1.416888 0.061649,-2.134736c-0.280034,-0.709489 -0.769048,-1.219401 -1.470178,-1.528692c-2.454476,-1.089833 -3.938237,-1.667664 -4.450239,-1.732448c-0.086727,-0.010449 -0.174499,-0.016718 -0.261226,-0.020898c-0.10449,-0.009404 -0.204801,-0.015674 -0.301977,-0.020898c-0.014629,-0.048066 -0.027167,-0.096131 -0.040751,-0.140017c-0.006269,-0.031347 -0.013584,-0.064784 -0.020898,-0.100311c-0.296752,-0.95922 -0.719938,-1.925755 -1.268511,-2.900649c5.564105,-1.550635 10.221235,-0.759644 13.973479,2.376108zm-49.533596,40.229785l-0.020898,-0.020898c-2.104433,-2.840045 -2.828551,-5.121066 -2.175487,-6.8462c0.360491,-0.679187 0.42841,-1.384496 0.201666,-2.113837c-0.223609,-0.734566 -0.672917,-1.284185 -1.348969,-1.649901c-0.677097,-0.360491 -1.382406,-0.427365 -2.113837,-0.200621c-0.733521,0.224654 -1.284185,0.675007 -1.650946,1.347924c-0.624852,1.005196 -0.987433,2.091895 -1.086698,3.262185c-2.072041,-0.615447 -3.481615,-1.862016 -4.22872,-3.745975l0.019853,0.020898c-1.17865,-3.506692 -1.567354,-6.989352 -1.168201,-10.449024l0,-0.020898c0.441994,-3.528635 1.39599,-6.763653 2.859898,-9.706098l0.019853,-0.018808c1.320757,-2.698983 2.984241,-4.129454 4.993588,-4.289324c0.491104,0.065829 0.993702,0.293618 1.509884,0.684411c-0.407512,1.412708 -0.783677,2.901694 -1.12745,4.470092c-0.160915,0.747105 -0.033437,1.446145 0.382434,2.093984c0.411692,0.652019 0.988478,1.060576 1.731403,1.228805c0.74815,0.16196 1.446145,0.034482 2.093984,-0.382434c0.649929,-0.412736 1.059531,-0.987433 1.22776,-1.732448c1.780514,-8.132475 4.458598,-13.702849 8.034254,-16.712168l0.020898,-0.020898c3.42101,-2.78571 6.435554,-4.229765 9.040495,-4.32903c3.715673,0.056425 7.137728,1.720954 10.2693,4.994633c0.549619,0.570517 1.048037,1.142078 1.490031,1.71155c0.013584,0.018808 0.026123,0.039706 0.039706,0.059559c0.056425,0.078368 0.115984,0.152556 0.181813,0.221519c1.104462,1.407483 1.8756,2.784665 2.315504,4.127364l-0.020898,-0.100311c0.131658,0.464982 0.233013,0.927873 0.301977,1.388675c-0.00209,0.036572 -0.00209,0.068964 0,0.101356c0.022988,0.251821 0.037616,0.513047 0.040751,0.784722c-0.001045,1.291499 -0.283169,2.35939 -0.846371,3.200536l0.039706,-0.039706c-0.484835,0.63739 -1.169246,0.939367 -2.053233,0.90593c-0.404377,0.005225 -0.794126,-0.042841 -1.168201,-0.141062l-0.060604,-0.020898l-0.020898,0c-0.829652,-0.282124 -1.608105,-0.793081 -2.335357,-1.528692l-0.019853,0c-1.788873,-1.771109 -3.090821,-3.040666 -3.90689,-3.807624c-0.112849,-0.26436 -0.274809,-0.510957 -0.482745,-0.74397c-0.476475,-0.528721 -1.066845,-0.830697 -1.772154,-0.90593c-0.708444,-0.078368 -1.352104,0.087772 -1.933069,0.503643c-0.575741,0.421096 -0.938322,0.979074 -1.087743,1.670799c-0.290483,0.992657 -0.135837,2.340581 0.462892,4.047952l0.020898,0.040751c0.295707,0.806665 0.462892,1.397034 0.503643,1.771109c-0.05329,1.730358 -0.762779,3.522366 -2.134736,5.377068l-0.020898,0.018808c-1.292544,1.696921 -2.628974,2.685399 -4.007201,2.960208c-0.755464,0.101356 -1.365687,0.457667 -1.832759,1.066845c-0.471251,0.610223 -0.660378,1.294634 -0.563202,2.054278c0.101356,0.755464 0.456622,1.365687 1.066845,1.832759c0.610223,0.470206 1.294634,0.659333 2.055323,0.563202c2.449251,-0.229879 4.76371,-1.618554 6.946511,-4.167071c-0.040751,0.363626 -0.061649,0.738746 -0.061649,1.126405c0,1.596611 0.287348,3.092911 0.866224,4.49099c-0.198531,0.112849 -0.392883,0.235103 -0.585145,0.362581c-2.308189,1.405394 -3.461761,3.679101 -3.462806,6.825302c-0.00418,0.307201 0.00209,0.609178 0.020898,0.90593c-1.76693,0.239283 -3.270544,1.137899 -4.509799,2.698983l-0.019853,0.019853c-1.315532,1.583027 -1.972776,3.581925 -1.973821,6.000874c-0.009404,0.603954 0.0512,1.207907 0.180768,1.811861c-4.116915,0.322875 -7.164895,-0.697995 -9.137671,-3.060519zm23.719283,8.900478c-2.121152,-0.045976 -4.181699,-0.966535 -6.182687,-2.759587l0,0.020898c-0.883987,-0.806665 -1.588252,-1.599746 -2.113837,-2.375063l-0.039706,-0.061649c-0.034482,-0.0512 -0.067919,-0.098221 -0.101356,-0.141062c-0.48588,-0.784722 -0.740836,-1.563174 -0.764869,-2.335357c-0.001045,-1.006241 0.246597,-1.847387 0.74606,-2.516125l0.019853,-0.020898c0.338548,-0.429455 0.755464,-0.658288 1.248658,-0.684411c0.125388,-0.00209 0.226744,-0.00209 0.301977,0c0.044931,0.017763 0.091951,0.037616 0.141062,0.059559c0.15778,0.080457 0.31974,0.147331 0.48379,0.201666c1.052217,1.484806 2.522394,2.813922 4.409488,3.987347l0.020898,0.018808c2.324908,1.411663 4.781473,2.331177 7.369696,2.759587c0.063739,0.095086 0.137927,0.188082 0.221519,0.282124l-0.019853,0.020898c-0.026123,0.882942 -0.402287,1.646766 -1.128495,2.294606c-1.0658,0.788901 -2.589268,1.204772 -4.570403,1.249703l-0.041796,0l0,-0.001045z"/>
 </g>
</svg>